<?xml version="1.0" encoding="UTF-8" standalone="no"?>
<!DOCTYPE svg PUBLIC "-//W3C//DTD SVG 1.1//EN" "http://www.w3.org/Graphics/SVG/1.1/DTD/svg11.dtd">
<!-- Created with Vectornator (http://vectornator.io/) -->
<svg height="100%" stroke-miterlimit="10" style="fill-rule:nonzero;clip-rule:evenodd;stroke-linecap:round;stroke-linejoin:round;" version="1.1" viewBox="0 0 440 440" width="100%" xml:space="preserve" xmlns="http://www.w3.org/2000/svg" xmlns:xlink="http://www.w3.org/1999/xlink">
<defs/>
<clipPath id="ArtboardFrame">
<rect height="440" width="440" x="0" y="0"/>
</clipPath>
<g clip-path="url(#ArtboardFrame)" id="g">
<path d="M155.088 286.939C155.088 251.532 183.791 222.828 219.199 222.828C254.606 222.828 283.309 251.532 283.309 286.939C283.309 322.346 254.606 351.049 219.199 351.049C183.791 351.049 155.088 322.346 155.088 286.939Z" fill="#005f73" fill-rule="evenodd" opacity="1" stroke="none"/>
<path d="M6.83301 286.939C6.83301 262.596 26.566 242.863 50.909 242.863C75.251 242.863 94.985 262.596 94.985 286.939C94.985 311.281 75.251 331.015 50.909 331.015C26.566 331.015 6.83301 311.281 6.83301 286.939Z" fill="#0a9396" fill-rule="evenodd" opacity="1" stroke="none"/>
<path d="M54.915 166.732C54.915 142.389 74.649 122.656 98.991 122.656C123.334 122.656 143.067 142.389 143.067 166.732C143.067 191.074 123.334 210.808 98.991 210.808C74.649 210.808 54.915 191.074 54.915 166.732Z" fill="#94d2bd" fill-rule="evenodd" opacity="1" stroke="none"/>
<path d="M175.123 118.649C175.123 94.3065 194.856 74.573 219.199 74.573C243.541 74.573 263.275 94.3065 263.275 118.649C263.275 142.991 243.541 162.725 219.199 162.725C194.856 162.725 175.123 142.991 175.123 118.649Z" fill="#ee9b00" fill-rule="evenodd" opacity="1" stroke="none"/>
<path d="M295.33 166.732C295.33 142.389 315.063 122.656 339.406 122.656C363.748 122.656 383.482 142.389 383.482 166.732C383.482 191.074 363.748 210.808 339.406 210.808C315.063 210.808 295.33 191.074 295.33 166.732Z" fill="#bb3e03" fill-rule="evenodd" opacity="1" stroke="none"/>
<path d="M343.413 286.939C343.413 262.596 363.146 242.863 387.489 242.863C411.831 242.863 431.565 262.596 431.565 286.939C431.565 311.281 411.831 331.015 387.489 331.015C363.146 331.015 343.413 311.281 343.413 286.939Z" fill="#ae2012" fill-rule="evenodd" opacity="1" stroke="none"/>
<g opacity="0">
<path d="M-505.459 482.892L-467.759 482.892L-467.759 426.341L-467.212 426.341C-462.841 436.996-452.733 444.918-437.98 444.918C-415.578 444.918-396.728 427.434-396.728 391.099C-396.728 353.125-416.944 337.279-437.707 337.279C-453.279 337.279-463.114 346.295-467.212 356.949L-468.032 356.949L-468.032 338.645L-505.459 338.645L-505.459 482.892ZM-468.578 391.099C-468.578 375.527-462.295 366.238-451.913 366.238C-441.532 366.238-435.522 375.527-435.522 391.099C-435.522 406.671-441.532 415.96-451.913 415.96C-462.295 415.96-468.578 406.398-468.578 391.099Z" fill="#005f73" fill-rule="evenodd" opacity="1" stroke="none"/>
<path d="M-333.181 445.465C-304.086 445.465-285.372 431.532-281.821 409.676L-316.243 409.676C-318.429 415.618-324.644 418.965-332.362 418.965C-343.563 418.965-350.12 411.588-350.12 401.48L-350.12 399.841L-281.821 399.841L-281.821 391.099C-281.821 357.701-302.31 337.279-334.001 337.279C-366.511 337.279-387.274 358.862-387.274 391.372C-387.274 425.316-366.784 445.465-333.181 445.465ZM-350.12 379.078C-349.915 369.994-342.402 363.779-333.181 363.779C-323.825 363.779-316.721 370.063-316.517 379.078L-350.12 379.078Z" fill="#005f73" fill-rule="evenodd" opacity="1" stroke="none"/>
<path d="M-269.088 443.552L-231.388 443.552L-231.388 388.913C-231.388 376.893-223.123 368.97-211.991 368.97C-208.098 368.97-201.814 369.585-198.058 370.882L-198.058 338.714C-201.063 337.826-204.341 337.279-207.62 337.279C-218.821 337.279-227.563 343.836-231.388 358.589L-232.48 358.589L-232.48 338.645L-269.088 338.645L-269.088 443.552Z" fill="#005f73" fill-rule="evenodd" opacity="1" stroke="none"/>
<path d="M-121.125 338.645L-140.249 338.645L-140.249 334.001C-140.249 329.084-138.336 325.805-131.233 325.805C-128.501 325.805-124.403 326.352-121.671 327.171L-116.207 300.125C-120.578 299.032-130.687 297.12-140.249 297.12C-163.197 297.12-177.949 309.687-177.949 335.64L-177.949 338.645L-191.336 338.645L-191.336 365.965L-177.949 365.965L-177.949 443.552L-140.249 443.552L-140.249 365.965L-121.125 365.965L-121.125 338.645Z" fill="#005f73" fill-rule="evenodd" opacity="1" stroke="none"/>
<path d="M-62.2226 445.465C-33.1276 445.465-14.4136 431.532-10.8616 409.676L-45.2846 409.676C-47.4696 415.618-53.6856 418.965-61.4026 418.965C-72.6036 418.965-79.1606 411.588-79.1606 401.48L-79.1606 399.841L-10.8616 399.841L-10.8616 391.099C-10.8616 357.701-31.3516 337.279-63.0426 337.279C-95.5526 337.279-116.316 358.862-116.316 391.372C-116.316 425.316-95.8256 445.465-62.2226 445.465ZM-79.1606 379.078C-78.9556 369.994-71.4426 363.779-62.2226 363.779C-52.8656 363.779-45.7626 370.063-45.5576 379.078L-79.1606 379.078Z" fill="#005f73" fill-rule="evenodd" opacity="1" stroke="none"/>
<path d="M52.4114 445.465C83.4874 445.465 102.542 427.639 102.952 399.841L67.9834 399.841C67.1644 410.837 61.2224 416.779 52.9574 416.779C43.0543 416.779 36.5664 408.31 36.5664 391.099C36.5664 373.888 43.0543 365.418 52.9574 365.418C61.2904 365.418 66.9594 371.36 67.9834 382.357L102.952 382.357C102.747 355.037 83.2824 337.279 52.4114 337.279C18.2624 337.279-1.95463 359.135-1.95463 391.372C-1.95463 423.609 18.2624 445.465 52.4114 445.465Z" fill="#005f73" fill-rule="evenodd" opacity="1" stroke="none"/>
<path d="M178.519 338.645L160.489 338.645L160.489 313.511L122.788 313.511L122.788 338.645L109.401 338.645L109.401 365.965L122.788 365.965L122.788 413.364C122.514 435.356 136.106 446.489 162.128 445.055C170.665 444.577 177.017 442.801 180.432 441.776L174.968 415.277C173.534 415.618 169.845 416.369 167.592 416.369C162.674 416.369 160.489 414.184 160.489 409.813L160.489 365.965L178.519 365.965L178.519 338.645Z" fill="#005f73" fill-rule="evenodd" opacity="1" stroke="none"/>
<path d="M191.251 443.552L228.952 443.552L228.952 338.645L191.251 338.645L191.251 443.552Z" fill="#005f73" fill-rule="evenodd" opacity="1" stroke="none"/>
<path d="M296.05 445.465C330.199 445.465 350.416 423.609 350.416 391.372C350.416 359.135 330.199 337.279 296.05 337.279C261.9 337.279 241.684 359.135 241.684 391.372C241.684 423.609 261.9 445.465 296.05 445.465ZM296.323 417.599C286.215 417.599 280.204 407.559 280.204 391.099C280.204 374.639 286.215 364.599 296.323 364.599C305.885 364.599 311.895 374.639 311.895 391.099C311.895 407.559 305.885 417.599 296.323 417.599Z" fill="#005f73" fill-rule="evenodd" opacity="1" stroke="none"/>
<path d="M400.849 384.542C400.917 374.161 406.791 367.877 416.148 367.877C425.641 367.877 431.242 374.161 431.174 384.542L431.174 443.552L468.874 443.552L468.874 376.619C468.943 353.808 454.532 337.279 432.266 337.279C416.831 337.279 404.605 345.339 400.029 358.589L398.937 358.589L398.937 338.645L363.148 338.645L363.148 443.552L400.849 443.552L400.849 384.542Z" fill="#005f73" fill-rule="evenodd" opacity="1" stroke="none"/>
</g>
</g>
</svg>
