<svg xmlns="http://www.w3.org/2000/svg" viewBox="0 0 1000 485.445">
  <path fill="#005f73" d="M671.165 220.868c0-31.286 25.362-56.649 56.649-56.649 31.286 0 56.648 25.363 56.648 56.649s-25.362 56.648-56.648 56.648c-31.287 0-56.649-25.362-56.649-56.648Z"/>
  <path fill="#0a9396" d="M515.448 213.406c0-24.343 19.733-44.076 44.076-44.076 24.342 0 44.076 19.733 44.076 44.076 0 24.342-19.734 44.076-44.076 44.076-24.343 0-44.076-19.734-44.076-44.076Z"/>
  <path fill="#94d2bd" d="M563.531 93.199c0-24.343 19.733-44.076 44.076-44.076 24.342 0 44.075 19.733 44.075 44.076 0 24.342-19.733 44.076-44.075 44.076-24.343 0-44.076-19.734-44.076-44.076Z"/>
  <path fill="#ee9b00" d="M683.738 45.116c0-24.343 19.733-44.076 44.076-44.076 24.342 0 44.076 19.733 44.076 44.076 0 24.342-19.734 44.076-44.076 44.076-24.343 0-44.076-19.734-44.076-44.076Z"/>
  <path fill="#bb3e03" d="M803.945 93.199c0-24.343 19.733-44.076 44.076-44.076 24.342 0 44.076 19.733 44.076 44.076 0 24.342-19.734 44.076-44.076 44.076-24.343 0-44.076-19.734-44.076-44.076Z"/>
  <path fill="#ae2012" d="M852.028 213.406c0-24.343 19.733-44.076 44.076-44.076 24.342 0 44.076 19.733 44.076 44.076 0 24.342-19.734 44.076-44.076 44.076-24.343 0-44.076-19.734-44.076-44.076Z"/>
  <path fill="#005f73" d="M12.772 473.253h37.701v-56.552h.547c4.37 10.655 14.479 18.578 29.231 18.578 22.402 0 41.253-17.485 41.253-53.82 0-37.974-20.217-53.819-40.98-53.819-15.572 0-25.407 9.015-29.505 19.67h-.82v-18.304H12.773v144.247Zm36.882-91.794c0-15.572 6.283-24.861 16.664-24.861 10.382 0 16.392 9.289 16.392 24.861 0 15.572-6.01 24.861-16.392 24.861-10.381 0-16.664-9.562-16.664-24.861Zm135.397 54.366c29.095 0 47.809-13.933 51.36-35.789h-34.422c-2.186 5.942-8.401 9.289-16.119 9.289-11.201 0-17.758-7.376-17.758-17.485v-1.639h68.299v-8.742c0-33.398-20.489-53.819-52.18-53.819-32.51 0-53.273 21.582-53.273 54.092 0 33.945 20.49 54.093 54.093 54.093Zm-16.939-66.386c.205-9.084 7.718-15.299 16.939-15.299 9.356 0 16.46 6.283 16.664 15.299h-33.603Zm81.032 64.474h37.7v-54.639c0-12.021 8.265-19.944 19.397-19.944 3.893 0 10.177.615 13.933 1.913v-32.169c-3.005-.888-6.283-1.434-9.562-1.434-11.201 0-19.943 6.556-23.768 21.309h-1.092v-19.943h-36.608v104.907Zm147.963-104.907h-19.124v-4.645c0-4.917 1.913-8.196 9.016-8.196 2.732 0 6.83.547 9.562 1.366l5.464-27.046c-4.371-1.093-14.48-3.005-24.042-3.005-22.948 0-37.7 12.567-37.7 38.52v3.006h-13.387v27.319h13.387v77.588h37.7v-77.588h19.124v-27.319Zm58.902 106.819c29.095 0 47.809-13.933 51.361-35.789h-34.423c-2.185 5.942-8.401 9.289-16.118 9.289-11.201 0-17.758-7.376-17.758-17.485v-1.639h68.299v-8.742c0-33.398-20.49-53.819-52.181-53.819-32.51 0-53.273 21.582-53.273 54.092 0 33.945 20.49 54.093 54.093 54.093Zm-16.938-66.386c.205-9.084 7.718-15.299 16.938-15.299 9.357 0 16.46 6.283 16.665 15.299h-33.603Zm131.572 66.386c31.076 0 50.131-17.826 50.541-45.624h-34.969c-.819 10.996-6.761 16.938-15.025 16.938-9.904 0-16.392-8.469-16.392-25.68s6.488-25.68 16.392-25.68c8.332 0 14.001 5.942 15.025 16.938h34.969c-.205-27.32-19.67-45.077-50.541-45.077-34.149 0-54.366 21.855-54.366 54.092 0 32.237 20.217 54.093 54.366 54.093Zm126.108-106.819h-18.03v-25.134H641.02v25.134h-13.387v27.319h13.387v47.399c-.274 21.993 13.318 33.125 39.34 31.691 8.537-.478 14.889-2.254 18.304-3.278l-5.464-26.5c-1.434.341-5.123 1.093-7.376 1.093-4.918 0-7.103-2.186-7.103-6.557v-43.848h18.03v-27.319Zm12.732 79.907h37.701V304.006h-37.701v104.907Zm104.799 26.912c34.149 0 54.366-21.856 54.366-54.093s-20.217-54.092-54.366-54.092c-34.15 0-54.366 21.855-54.366 54.092 0 32.237 20.216 54.093 54.366 54.093Zm.273-27.866c-10.108 0-16.119-10.04-16.119-26.5s6.011-26.5 16.119-26.5c9.562 0 15.572 10.04 15.572 26.5s-6.01 26.5-15.572 26.5Zm104.526-33.057c.068-10.381 5.942-16.664 15.299-16.664 9.493 0 15.094 6.283 15.026 16.664v59.011h37.7V366.98c.069-22.812-14.342-39.34-36.608-39.34-15.435 0-27.661 8.059-32.237 21.309h-1.092v-19.943H881.38v104.907h37.701v-59.011Z"/>
</svg>